<svg xmlns="http://www.w3.org/2000/svg" viewBox="0 0 140 40" fill="none">
  <path d="M140 25.6v1.6h-3.2v-1.6h3.2zm-6.4 0v1.6h-3.2v-1.6h3.2zm-6.4 0v1.6H124v-1.6h3.2zm-6.4 0v1.6h-3.2v-1.6h3.2zm-6.4 0v1.6h-3.2v-1.6h3.2z" fill="#006FCF"/>
  <path d="M101.6 25.6v1.6h-3.2v-1.6h3.2zm-6.4 0v1.6H92v-1.6h3.2zm-6.4 0v1.6h-3.2v-1.6h3.2zm-6.4 0v1.6h-3.2v-1.6h3.2zm-6.4 0v1.6h-3.2v-1.6h3.2z" fill="#006FCF"/>
  <path d="M69.6 25.6v1.6h-3.2v-1.6h3.2zm-6.4 0v1.6H60v-1.6h3.2zm-6.4 0v1.6h-3.2v-1.6h3.2zm-6.4 0v1.6h-3.2v-1.6h3.2zm-6.4 0v1.6h-3.2v-1.6h3.2z" fill="#006FCF"/>
  <path d="M37.6 25.6v1.6h-3.2v-1.6h3.2zm-6.4 0v1.6H28v-1.6h3.2zm-6.4 0v1.6h-3.2v-1.6h3.2zm-6.4 0v1.6h-3.2v-1.6h3.2zm-6.4 0v1.6H9.6v-1.6h3.2z" fill="#006FCF"/>
  <path d="M5.6 25.6v1.6H2.4v-1.6h3.2zm-4.8 0v1.6H0v-1.6h.8z" fill="#006FCF"/>
  <path d="M140 12.8v1.6h-3.2v-1.6h3.2zm-6.4 0v1.6h-3.2v-1.6h3.2zm-6.4 0v1.6H124v-1.6h3.2zm-6.4 0v1.6h-3.2v-1.6h3.2zm-6.4 0v1.6h-3.2v-1.6h3.2z" fill="#006FCF"/>
  <path d="M101.6 12.8v1.6h-3.2v-1.6h3.2zm-6.4 0v1.6H92v-1.6h3.2zm-6.4 0v1.6h-3.2v-1.6h3.2zm-6.4 0v1.6h-3.2v-1.6h3.2zm-6.4 0v1.6h-3.2v-1.6h3.2z" fill="#006FCF"/>
  <path d="M69.6 12.8v1.6h-3.2v-1.6h3.2zm-6.4 0v1.6H60v-1.6h3.2zm-6.4 0v1.6h-3.2v-1.6h3.2zm-6.4 0v1.6h-3.2v-1.6h3.2zm-6.4 0v1.6h-3.2v-1.6h3.2z" fill="#006FCF"/>
  <path d="M37.6 12.8v1.6h-3.2v-1.6h3.2zm-6.4 0v1.6H28v-1.6h3.2zm-6.4 0v1.6h-3.2v-1.6h3.2zm-6.4 0v1.6h-3.2v-1.6h3.2zm-6.4 0v1.6H9.6v-1.6h3.2z" fill="#006FCF"/>
  <path d="M5.6 12.8v1.6H2.4v-1.6h3.2zm-4.8 0v1.6H0v-1.6h.8z" fill="#006FCF"/>
</svg> 